<svg xmlns="http://www.w3.org/2000/svg" xmlns:xlink="http://www.w3.org/1999/xlink" xmlns:lucid="lucid" width="2242.83" height="855.92"><g transform="translate(-408.00000000000045 -2606.2434791301685)" lucid:page-tab-id="0_0"><path d="M1288.5 3185.94h36.2" stroke="#3a414a" stroke-width="3" fill="none"/><path d="M1288.54 3187.4H1287v-2.93h1.54z" stroke="#3a414a" stroke-width=".05" fill="#3a414a"/><path d="M1332.87 3185.94l-12.9 7.64v-15.28z" stroke="#3a414a" stroke-width="3" fill="#3a414a"/><path d="M1127 2960.5a6 6 0 0 1 6-6h148a6 6 0 0 1 6 6v108a6 6 0 0 1-6 6h-148a6 6 0 0 1-6-6z" stroke="#000" stroke-opacity="0" stroke-width="3" fill="#393fc3"/><use xlink:href="#a" transform="matrix(1,0,0,1,1138.9999999999993,2966.500025) translate(7.598765432098773 26.77777777777778)"/><use xlink:href="#b" transform="matrix(1,0,0,1,1138.9999999999993,2966.500025) translate(92.59876543209876 26.77777777777778)"/><use xlink:href="#c" transform="matrix(1,0,0,1,1138.9999999999993,2966.500025) translate(17.444444444444443 53.44444444444445)"/><use xlink:href="#d" transform="matrix(1,0,0,1,1138.9999999999993,2966.500025) translate(101.33333333333333 53.44444444444445)"/><use xlink:href="#e" transform="matrix(1,0,0,1,1138.9999999999993,2966.500025) translate(29.141975308641975 80.11111111111111)"/><path d="M591 3014.5h31.4" stroke="#3a414a" stroke-width="3" fill="none"/><path d="M591.04 3015.97h-1.63l.1-1.47-.05-1.47h1.6z" stroke="#3a414a" stroke-width=".05" fill="#3a414a"/><path d="M630.55 3014.5l-12.9 7.64v-15.28z" stroke="#3a414a" stroke-width="3" fill="#3a414a"/><path d="M795 3014.5h33.88" stroke="#3a414a" stroke-width="3" fill="none"/><path d="M795.04 3015.97h-1.54v-2.94h1.54z" stroke="#3a414a" stroke-width=".05" fill="#3a414a"/><path d="M837.04 3014.5l-12.9 7.64v-15.28z" stroke="#3a414a" stroke-width="3" fill="#3a414a"/><path d="M1121.12 3131.7l-1.34 1.42-59.9-56.3h2.86zm-81.08-76.2h-2.84l-42.12-39.6 1.33-1.43z" stroke="#5e5e5e" stroke-width=".05" fill="#5e5e5e"/><path d="M996.43 3014.5l-1.34 1.4-.22-.2.06-.26.07-.94-.06-.94-.15-.6z" fill="#5e5e5e"/><path stroke="#5e5e5e" stroke-width=".05" fill="#5e5e5e"/><path d="M1125.57 3137.22l-14.64-3.28 10.46-11.13z" fill="#5e5e5e"/><path d="M1126.96 3138.53l-17.9-4 12.8-13.63zm-14.15-5.17l11.37 2.55-3.24-11.17z" stroke="#5e5e5e" stroke-width=".05" fill="#5e5e5e"/><use xlink:href="#f" transform="matrix(1,0,0,1,1034.6587933515104,3055.4882770343793) translate(0 14.222222222222223)"/><path d="M913.26 2938.74a6 6 0 0 1 8.48 0l71.52 71.52a6 6 0 0 1 0 8.48l-71.52 71.52a6 6 0 0 1-8.48 0l-71.52-71.52a6 6 0 0 1 0-8.48z" stroke="#000" stroke-opacity="0" stroke-width="3" fill="#fccf0c"/><use xlink:href="#g" transform="matrix(1,0,0,1,849.5000000000005,2946.500025) translate(43.313641975308634 73.02777777777777)"/><path d="M557.5 2974.5c17.67 0 32 17.9 32 40s-14.33 40-32 40h-96c-17.67 0-32-17.9-32-40s14.33-40 32-40z" stroke="#000" stroke-opacity="0" stroke-width="3" fill="#78e6d8"/><use xlink:href="#h" transform="matrix(1,0,0,1,441.50000000000045,2986.500025) translate(30.345679012345677 21.27777777777778)"/><use xlink:href="#i" transform="matrix(1,0,0,1,441.50000000000045,2986.500025) translate(87.1358024691358 21.27777777777778)"/><use xlink:href="#j" transform="matrix(1,0,0,1,441.50000000000045,2986.500025) translate(32.84567901234568 47.94444444444444)"/><path d="M633.5 2960.5a6 6 0 0 1 6-6h148a6 6 0 0 1 6 6v108a6 6 0 0 1-6 6h-148a6 6 0 0 1-6-6z" stroke="#000" stroke-opacity="0" stroke-width="3" fill="#393fc3"/><use xlink:href="#k" transform="matrix(1,0,0,1,645.5000000000005,2966.500025) translate(33.49382716049383 38.77777777777778)"/><use xlink:href="#l" transform="matrix(1,0,0,1,645.5000000000005,2966.500025) translate(31.611111111111114 65.44444444444446)"/><path d="M1127 3131.94a6 6 0 0 1 6-6h148a6 6 0 0 1 6 6v108a6 6 0 0 1-6 6h-148a6 6 0 0 1-6-6z" stroke="#000" stroke-opacity="0" stroke-width="3" fill="#393fc3"/><use xlink:href="#m" transform="matrix(1,0,0,1,1138.9999999999993,3137.940128958198) translate(5.129629629629633 53.77777777777778)"/><use xlink:href="#n" transform="matrix(1,0,0,1,1138.9999999999993,3137.940128958198) translate(48.21604938271606 53.77777777777778)"/><path d="M1933.5 2974.5c17.67 0 32 17.9 32 40s-14.33 40-32 40h-96c-17.67 0-32-17.9-32-40s14.33-40 32-40z" stroke="#000" stroke-opacity="0" stroke-width="3" fill="#78e6d8"/><use xlink:href="#h" transform="matrix(1,0,0,1,1817.5000000000005,2986.500025) translate(30.345679012345677 21.27777777777778)"/><use xlink:href="#i" transform="matrix(1,0,0,1,1817.5000000000005,2986.500025) translate(87.1358024691358 21.27777777777778)"/><use xlink:href="#o" transform="matrix(1,0,0,1,1817.5000000000005,2986.500025) translate(34.11111111111111 47.94444444444444)"/><path d="M1291.67 2893.15c0 9.3-37.9 16.85-84.67 16.85-46.76 0-84.67-7.54-84.67-16.85v-134.8c0-9.3 37.9-16.85 84.67-16.85 46.76 0 84.67 7.54 84.67 16.85z" stroke="#3a414a" stroke-width="3" fill="#fff"/><path d="M1291.67 2758.35c0 9.3-37.9 16.85-84.67 16.85-46.76 0-84.67-7.54-84.67-16.85" stroke="#3a414a" stroke-width="3" fill="none"/><use xlink:href="#p" transform="matrix(1,0,0,1,1127.3333333333326,2780.200025) translate(34.53611111111112 36.425)"/><use xlink:href="#q" transform="matrix(1,0,0,1,1127.3333333333326,2780.200025) translate(28.758333333333333 67.625)"/><use xlink:href="#r" transform="matrix(1,0,0,1,1127.3333333333326,2780.200025) translate(113.90833333333333 67.625)"/><use xlink:href="#s" transform="matrix(1,0,0,1,1127.3333333333326,2780.200025) translate(19.441666666666677 98.825)"/><use xlink:href="#t" transform="matrix(1,0,0,1,1127.3333333333326,2780.200025) translate(82.85277777777779 98.825)"/><path d="M996.38 3014.2l-1.62-1.07 44.36-66.55h2.34zm120.28-180.43l-60.98 91.48h-2.34l61.7-92.56z" stroke="#5e5e5e" stroke-width=".05" fill="#5e5e5e"/><path d="M996.4 3014.2l-2.15 3.2.1-.18.37-.87.22-.9.07-.95-.06-.94-.1-.4z" fill="#5e5e5e"/><path stroke="#5e5e5e" stroke-width=".05" fill="#5e5e5e"/><path d="M1118.94 2842.36l-12.7-8.47 13.5-6.5z" fill="#5e5e5e"/><path d="M1119.82 2844.12l-15.55-10.36 16.54-7.97zm-11.63-10.1l9.85 6.58.63-11.62z" stroke="#5e5e5e" stroke-width=".05" fill="#5e5e5e"/><use xlink:href="#f" transform="matrix(1,0,0,1,1032.0912682707476,2925.2463512591776) translate(0 14.222222222222223)"/><path d="M1207 2912.5v33" stroke="#5e5e5e" stroke-width="2" fill="none"/><path d="M1207 2911.5l.97-.02v1.05h-1.94v-1.06z" stroke="#5e5e5e" stroke-width=".05" fill="#5e5e5e"/><path d="M1207 2952.54l-7.64-12.92h15.28z" stroke="#5e5e5e" stroke-width="2" fill="#5e5e5e"/><path d="M1008.75 3015.97H996.5v-2.94h12.25zm107.14 0h-76.54v-2.94h76.53z" stroke="#3a414a" stroke-width=".05" fill="#3a414a"/><path d="M996.55 3015.97h-1.74l.14-.53.07-.94-.06-.94-.13-.53h1.75z" fill="#3a414a"/><path stroke="#3a414a" stroke-width=".05" fill="#3a414a"/><path d="M1124.05 3014.5l-12.9 7.64v-15.28z" fill="#3a414a"/><path d="M1126.95 3014.5l-17.28 10.22v-20.44zm-14.33 5.05l8.54-5.05-8.54-5.05z" stroke="#3a414a" stroke-width=".05" fill="#3a414a"/><use xlink:href="#u" transform="matrix(1,0,0,1,1008.7465576603155,3003.8333583333333) translate(0 14.222222222222223)"/><path d="M1655.17 2938.74a6 6 0 0 1 8.5 0l71.5 71.52a6 6 0 0 1 0 8.48l-71.5 71.52a6 6 0 0 1-8.5 0l-71.5-71.52a6 6 0 0 1 0-8.48z" stroke="#000" stroke-opacity="0" stroke-width="3" fill="#fccf0c"/><use xlink:href="#v" transform="matrix(1,0,0,1,1591.4166666666674,2946.500025) translate(60.59759259259259 73.02777777777777)"/><path d="M1966.94 3015.37l45.28-.7" stroke="#3a414a" stroke-width="3" fill="none"/><path d="M1967 3016.84l-1.65.03.15-2.37-.02-.58 1.48-.03z" stroke="#3a414a" stroke-width=".05" fill="#3a414a"/><path d="M2020.4 3014.55l-12.8 7.83-.24-15.27z" stroke="#3a414a" stroke-width="3" fill="#3a414a"/><path d="M2023.33 2960.5a6 6 0 0 1 6-6h148a6 6 0 0 1 6 6v108a6 6 0 0 1-6 6h-148a6 6 0 0 1-6-6z" stroke="#000" stroke-opacity="0" stroke-width="3" fill="#393fc3"/><use xlink:href="#k" transform="matrix(1,0,0,1,2035.3333333333348,2966.500025) translate(33.49382716049383 38.77777777777778)"/><use xlink:href="#l" transform="matrix(1,0,0,1,2035.3333333333348,2966.500025) translate(31.611111111111114 65.44444444444446)"/><path d="M2597.33 2974.5c17.68 0 32 17.9 32 40s-14.32 40-32 40h-96c-17.67 0-32-17.9-32-40s14.33-40 32-40z" stroke="#000" stroke-opacity="0" stroke-width="3" fill="#ff3a3a"/><use xlink:href="#w" transform="matrix(1,0,0,1,2481.3333333333335,2986.500025) translate(48.24691358024691 31.77777777777778)"/><path d="M2183.33 2876.07c0 9.3-37.9 16.85-84.66 16.85s-84.67-7.55-84.67-16.85v-134.8c0-9.3 37.9-16.85 84.67-16.85 46.76 0 84.66 7.54 84.66 16.85z" stroke="#3a414a" stroke-width="3" fill="#fff"/><path d="M2183.33 2741.27c0 9.3-37.9 16.85-84.66 16.85s-84.67-7.55-84.67-16.85" stroke="#3a414a" stroke-width="3" fill="none"/><use xlink:href="#x" transform="matrix(1,0,0,1,2019.0000000000018,2763.1166666666663) translate(25.183333333333337 36.425)"/><use xlink:href="#q" transform="matrix(1,0,0,1,2019.0000000000018,2763.1166666666663) translate(28.758333333333333 67.625)"/><use xlink:href="#r" transform="matrix(1,0,0,1,2019.0000000000018,2763.1166666666663) translate(113.90833333333333 67.625)"/><use xlink:href="#s" transform="matrix(1,0,0,1,2019.0000000000018,2763.1166666666663) translate(19.441666666666677 98.825)"/><use xlink:href="#t" transform="matrix(1,0,0,1,2019.0000000000018,2763.1166666666663) translate(82.85277777777779 98.825)"/><path d="M917.47 3093.52l-.05 2.55-.25 3.88-.4 3.73-.52 3.6-.33 1.74m-4.33 14.96l-1.26 2.98-1.44 3.05-1.58 3.03-1.72 2.97-1.87 2.96-2.04 2.93-2.23 2.9-2.4 2.92-2.18 2.4m-11.47 10.57l-1.96 1.55-4.02 2.92-4.4 2.92-4.83 2.9-5.3 2.92-5.84 2.9-.2.1m-14.43 5.95l-6.7 2.33-8.64 2.6-9.5 2.44-5.15 1.1m-15.34 2.82l-1.4.24-12.48 1.57-13.45 1.12-3.7.15m-15.58.44h-10.25l-15.73-.67-5.2-.44m-15.52-1.5l-11.4-1.45-15.82-2.68-3.6-.76m-15.2-3.38l-11-2.82-13.63-4.1-5.3-1.86m-14.63-5.44l-4.27-1.7-10.56-4.7-9.6-4.74-3.8-2.1m-13.45-7.9l-6.25-4.16-6.33-4.6-5.7-4.52-5.14-4.43-1.32-1.24m-10.88-11.14l-.37-.4-3.4-4.1-3.07-4.06-2.76-3.98-2.5-3.92-2.24-3.9-2-3.84-.83-1.73m-5.53-14.57l-.76-2.72-.9-3.83-.73-3.85-.58-3.9-.1-.97" stroke="#3a414a" stroke-width="3" stroke-linejoin="round" fill="none"/><path d="M918.94 3093.6l-2.95-.07.03-1.72.53.14.94.07.94-.06.54-.13z" stroke="#3a414a" stroke-width=".05" fill="#3a414a"/><path d="M509.67 3057.44l8.38 12.44-15.24.9z" stroke="#3a414a" stroke-width="3" fill="#3a414a"/><use xlink:href="#y" transform="matrix(1,0,0,1,925.3003576581293,3087.5751561502625) translate(0 14.222222222222223)"/><path d="M1409.1 3110.18a6 6 0 0 1 8.48 0l71.5 71.52a6 6 0 0 1 0 8.48l-71.5 71.52a6 6 0 0 1-8.5 0l-71.5-71.52a6 6 0 0 1 0-8.48z" stroke="#000" stroke-opacity="0" stroke-width="3" fill="#fccf0c"/><use xlink:href="#z" transform="matrix(1,0,0,1,1345.3333333333344,3117.940128958198) translate(20.504999999999995 73.02777777777777)"/><path d="M1168.65 3458.78l-20.8.86h-9.47v-2.95h9.42l20.73-.87zm-75.37-3.3l28.44 1.2h1.54v2.95h-1.6l-28.57-1.2-.16-.02.24-2.93zm120.65-1.26l-.84.14-19.67 2.47-9.65.8-.24-2.93 9.6-.8 19.52-2.46.78-.13zm-151.4-1.34l15.6 1.32-.25 2.94-15.67-1.32-14.44-1.83.37-2.94zm-32.9-4.16l3.5.44-.37 2.93-3.58-.46-26.3-4.46.5-2.9zm228.8-3.7l-11.4 2.9-16.13 3.43-2.07.35-.5-2.9 2.02-.35 16-3.4 11.35-2.9zm-269.85-3.53l-.62 2.88-29.56-6.3.6-2.88zm312.88-11.4l-3.37 1.5-11.05 4.36-12.1 4.2-1.95.6-.85-2.83 1.9-.57 11.97-4.16 10.92-4.32 3.32-1.48zm-379.15-4.32l22.13 5.68-.73 2.86-22.2-5.7-7.06-2.13.86-2.84zm419.05-17.73l-.3.23-7.25 4.8-7.85 4.75-8.5 4.68-2.26 1.13-1.32-2.64 2.2-1.1 8.4-4.62 7.74-4.7 7.14-4.73.26-.2zm-455.6 6.7l15.08 4.54-.86 2.8-15.13-4.55-13.67-4.77.97-2.78zM850 3402.28l7.86 2.73-.97 2.78-7.93-2.75-20.36-8.06 1.1-2.75zm525.27-24.72l-.47.56-4.67 5.2-5 5.1-5.4 5.05-5.77 4.98-.5.4-1.85-2.3.48-.37 5.7-4.9 5.28-4.96 4.92-5.03 4.6-5.1.4-.5zM815.7 3388.7l-1.2 2.7-27.62-12.3 1.2-2.68zm-62.54-29.36l21.34 10.6-1.3 2.63-21.4-10.62-5.62-3.08 1.42-2.6zm646.5-20.23l-2.7 5.77-3.07 5.86-3.3 5.72-3.56 5.6-2.44 3.5-2.42-1.7 2.4-3.45 3.48-5.48 3.24-5.6 3-5.77 2.7-5.7zm-674.16 5.04l8.86 4.87-1.42 2.6-8.92-4.9-17.2-10.43 1.52-2.52zm-47.9-30.33l18 11.95-1.64 2.46-18.04-11.97-7-5.07 1.74-2.4zm734.8-18.5l-.38 2.56-1.44 7.55-1.7 7.22-1.92 6.92-1.73 5.32-2.8-.9 1.7-5.27 1.9-6.8 1.66-7.1 1.4-7.43.38-2.5zm-773.5-10.8l18.28 14.48 1.25.9-1.73 2.4-1.3-.95-18.37-14.55-4.02-3.47 1.94-2.22zm775.88-19.5l-.17 7.8-.45 7.36-2.94-.2.47-7.28.16-7.74zm-806.72-8.22l14.54 13.65.9.77-1.93 2.24-.95-.82L606 3258.9l-6.33-6.47 2.1-2.06zm-34.7-38.35l10.25 12.36 7.8 8.66-2.18 1.97-7.85-8.7-10.3-12.47-1.5-1.95 2.35-1.78zm-24.3-34.87l7.15 11.28 6.7 9.63-2.42 1.7-6.73-9.7-7.23-11.38-2.53-4.4 2.54-1.48zm-21.15-42.32l4.3 10.22 4.92 10.45 2.16 4.14-2.6 1.37-2.2-4.18-4.97-10.56-4.34-10.34-.97-2.63 2.75-1.03zm-11.9-39.28l2.25 9.63 2.72 9.73 1 3.13-2.8.9-1.03-3.18-2.75-9.86-2.3-9.75-1.27-6.7 2.9-.54zm-4.23-28.52l.74 7.07-2.92.32-.75-7.13-.5-8 2.94-.2z" stroke="#3a414a" stroke-width=".05" fill="#3a414a"/><path d="M1414.78 3265.03l-2.95-.06.03-1.72.54.13.93.07.94-.07.54-.13z" fill="#3a414a"/><path stroke="#3a414a" stroke-width=".05" fill="#3a414a"/><path d="M517.56 3070.15l-15.27.4 7.28-13.1z" fill="#3a414a"/><path d="M520.18 3071.55l-20.43.55 9.75-17.55zm-15.34-2.54l10.1-.26-5.28-8.4z" stroke="#3a414a" stroke-width=".05" fill="#3a414a"/><use xlink:href="#y" transform="matrix(1,0,0,1,1420.850490219145,3267.0395393005188) translate(0 14.222222222222223)"/><path d="M1762.13 3015.97h-23.7v-2.94h23.7zm32.26 0h-1.65v-2.94h1.64z" stroke="#3a414a" stroke-width=".05" fill="#3a414a"/><path d="M1738.47 3015.97h-1.74l.13-.53.07-.94-.07-.94-.13-.53h1.74z" fill="#3a414a"/><path stroke="#3a414a" stroke-width=".05" fill="#3a414a"/><path d="M1802.55 3014.5l-9.8 5.8v-11.6z" fill="#3a414a"/><path d="M1805.45 3014.5l-12.7 7.5v-3.4l6.9-4.1-6.9-4.1v-3.4z" stroke="#3a414a" stroke-width=".05" fill="#3a414a"/><use xlink:href="#u" transform="matrix(1,0,0,1,1762.130697008118,3003.8333583333338) translate(0 14.222222222222223)"/><path d="M1409.1 2938.74a6 6 0 0 1 8.48 0l71.5 71.52a6 6 0 0 1 0 8.48l-71.5 71.52a6 6 0 0 1-8.5 0l-71.5-71.52a6 6 0 0 1 0-8.48z" stroke="#000" stroke-opacity="0" stroke-width="3" fill="#fccf0c"/><use xlink:href="#A" transform="matrix(1,0,0,1,1345.3333333333344,2946.500025) translate(30.4124074074074 73.02777777777777)"/><path d="M1581.75 3177.1l-3.17.88-9.7 2.27-11.2 2.13-13 1.9-15.2 1.6-17.8 1.1-19.3.4-.06-2.95 19.23-.4 17.68-1.1 15.07-1.57 12.9-1.9 11.07-2.1 9.58-2.24 3.9-1.1zm78.45-73.82l-.25 1.93-.57 3.38-.68 3.22-.8 3.1-.9 2.98-1 2.9-1.1 2.8-1.23 2.72-1.32 2.66-1.43 2.6-1.56 2.58-1.67 2.52-1.82 2.5-1.95 2.45-2.1 2.45-2.3 2.43-2.46 2.42-2.68 2.4-2.93 2.42-3.18 2.42-3.5 2.42-3.83 2.43-4.22 2.43-4.38 2.3v-3.34l2.96-1.56 4.12-2.38 3.72-2.36 3.38-2.35 3.1-2.34 2.8-2.32 2.6-2.33 2.38-2.33 2.2-2.34 2.02-2.35 1.88-2.37 1.74-2.4 1.6-2.4 1.5-2.46 1.37-2.5 1.26-2.56 1.17-2.6 1.06-2.7.97-2.77.86-2.87.77-2.97.65-3.1.55-3.25.24-1.87z" stroke="#3a414a" stroke-width=".05" fill="#3a414a"/><path d="M1492.42 3187.38l-1.78.04.13-.54.08-.94-.08-.94-.12-.53 1.7-.04z" fill="#3a414a"/><path stroke="#3a414a" stroke-width=".05" fill="#3a414a"/><path d="M1666.06 3108.3l-15.24-.93 8.4-12.4z" fill="#3a414a"/><path d="M1668.55 3109.95l-20.4-1.26 11.26-16.64zm-15.06-3.9l10.07.63-4.5-8.83z" stroke="#3a414a" stroke-width=".05" fill="#3a414a"/><use xlink:href="#u" transform="matrix(1,0,0,1,1581.7488825840007,3160.0045686393655) translate(0 14.222222222222223)"/><path d="M1512.7 3015.97h-20.35v-2.94h20.34zm58.1 0h-27.5v-2.94h27.5z" stroke="#3a414a" stroke-width=".05" fill="#3a414a"/><path d="M1492.4 3015.97h-1.76l.13-.53.08-.94-.08-.94-.13-.53h1.75z" fill="#3a414a"/><path stroke="#3a414a" stroke-width=".05" fill="#3a414a"/><path d="M1578.95 3014.5l-12.9 7.64v-15.28z" fill="#3a414a"/><path d="M1581.85 3014.5l-17.28 10.22v-20.44zm-14.33 5.05l8.54-5.05-8.54-5.05z" stroke="#3a414a" stroke-width=".05" fill="#3a414a"/><use xlink:href="#u" transform="matrix(1,0,0,1,1512.6913580246928,3003.8333583333338) translate(0 14.222222222222223)"/><path d="M1288.5 3014.5h36.2" stroke="#3a414a" stroke-width="3" stroke-linejoin="round" fill="none"/><path d="M1288.54 3015.97H1287v-2.94h1.54z" stroke="#3a414a" stroke-width=".05" fill="#3a414a"/><path d="M1332.87 3014.5l-12.9 7.64v-15.28z" stroke="#3a414a" stroke-width="3" fill="#3a414a"/><path d="M512.55 2948.84l-.84 8.06-.4 6.6-2.95-.2.42-6.65.85-8.12zm902.07-20.86l.16 7.46-2.95.07-.16-7.4-.46-7.3 2.96-.17zm-891.9-21.8l-.62 1.67-2.58 7.93-2.23 8-1.9 8.08-.5 2.52-2.88-.55.5-2.58 1.9-8.2 2.28-8.13 2.6-8.04.66-1.73zm883.8-26.8l2.12 7.6 1.83 7.78 1.52 7.96.44 3.1-2.9.44-.46-3.05-1.5-7.82-1.8-7.66-2.1-7.5-.8-2.46 2.82-.9zm-864.65-12.73l-1.17 1.85-4.56 7.9-4.1 7.85-3.7 7.85-.18.4-2.72-1.13.2-.47 3.75-7.96 4.15-7.97 4.62-8 1.2-1.9zm849.3-23.74l3.73 7.15 3.4 7.2 2.34 5.6-2.72 1.14-2.33-5.55-3.34-7.1-3.68-7.02-3.8-6.57 2.56-1.47zm-822.7-11.32l-4.3 4.74-6.75 8.17-6.13 8.07-1.28 1.83-2.42-1.68 1.3-1.9 6.2-8.16 6.85-8.26 4.3-4.8zm797.97-24.05l5.86 7.07 5.36 7.07 1.5 2.17-2.4 1.68-1.5-2.12-5.27-6.96-5.8-6.98-6-6.67 2.2-1.98zm-766-6.2l-1.5 1.18-10.02 8.65-9.07 8.5-1.25 1.28-2.1-2.06 1.28-1.32 9.16-8.6 10.1-8.72 1.56-1.22zm727.44-29.7l9.17 7.28 8.37 7.22 4.44 4.17-2.02 2.14-4.4-4.12-8.27-7.14-9.07-7.18-.67-.5 1.73-2.38zm-691.63 3.94l-.42.25-13.57 9.02-10.23 7.43-1.74-2.4 10.28-7.46 13.67-9.07.47-.28zm38.53-21.6l-7.27 3.6-16.64 9.16-1.98 1.2-1.52-2.53 2.02-1.23 16.76-9.2 7.33-3.64zm619.8-4.36l12.17 7.4 8.33 5.5-1.63 2.47-8.28-5.5-12.07-7.3-4.7-2.6 1.4-2.57zm-579.5-13.7l-8.75 3.46-18.33 8.16-1.2-2.7 18.38-8.18 8.82-3.5zm534.9-8.3l16.35 7.3 10.38 5.14-1.3 2.64-10.33-5.12-16.24-7.23-.1-.04 1.07-2.75zm-493.33-6.67l-3.2.96-24.7 8.58-.95-2.78 24.75-8.62 3.25-.98zm455.33-7.4l19.93 6.94 4.17 1.64-1.1 2.76-4.1-1.63-19.8-6.9-3.87-1.15.86-2.83zm-412.74-4.6l-18.86 4.84-9.58 2.9-.85-2.84 9.63-2.9 18.93-4.86zm366.72-8.18l24.08 6.17 3.87 1.17-.84 2.8-3.8-1.14-23.97-6.14-.7-.15.6-2.88zm-323.58-1.37l-1.65.28-27.2 5.78-.6-2.9 27.25-5.78 1.7-.3zm297.28-4.22l11.1 2.36-.6 2.9-11.05-2.36-17.93-3.03.5-2.9zm-253.56-2.64l-12.36 1.56-16.8 2.84-.48-2.9 16.85-2.86 12.43-1.57zm194.4-6.03l26.5 3.33-.37 2.93-26.45-3.34-2.8-.24.24-2.93zm-150.4 1.4l-21.97 1.84-7.38.93-.37-2.93 7.44-.94 22.03-1.85zm117.84-4.14l14.95 1.25-.25 2.95-14.9-1.24-14.52-.6.12-2.95zm-73.66 1.72l-29.5 1.24-.14-2.95 29.52-1.24zm44.3-2.95l-.1 2.95-4.7-.2H989v-2.94h24.88z" stroke="#3a414a" stroke-width=".05" fill="#3a414a"/><path d="M1414.8 2937.2l-.53-.14-.94-.07-.93.06-.54.13-.03-1.73 2.95-.06z" fill="#3a414a"/><path stroke="#3a414a" stroke-width=".05" fill="#3a414a"/><path d="M517.6 2958.87l-8.02 12.68-7.25-13.12z" fill="#3a414a"/><path d="M520.22 2957.47l-10.72 16.98-9.72-17.57zm-10.55 11.2l5.3-8.4-10.1-.3z" stroke="#3a414a" stroke-width=".05" fill="#3a414a"/><use xlink:href="#y" transform="matrix(1,0,0,1,1420.708495588145,2910.059272029455) translate(0 14.222222222222223)"/><path d="M512.26 2948.75l-.36 3.36-.7 11.07v.25l-2.94-.06v-.32l.7-11.17.37-3.43zm1148.4-23.2l.2 9.9-2.95.05-.2-9.83-.3-4.93 2.94-.2zM520.32 2905.3l-1.35 4.8-2.4 10.25-1.98 10.4-.5 3.34-2.9-.44.5-3.4 2-10.52 2.42-10.36 1.37-4.9zm1135.03-22.05l1.94 10.14 1.54 10.4.2 1.9-2.94.32-.2-1.85-1.5-10.28-1.92-10.04-1.6-6.84 2.86-.68zm-1119.5-19.35l-2.93 6.22-4.17 9.9-3.7 9.96-.4 1.2-2.8-.92.4-1.25 3.76-10.06 4.2-10.02 2.96-6.28zm1103.9-28.65l3.94 9.33 3.5 9.43 2.58 7.92-2.8.9-2.56-7.84-3.47-9.32-3.87-9.2-.55-1.18 2.66-1.26zm-1081.65-9.55l-3.3 4.76-6.32 9.96-5.73 9.92-.2.4-2.62-1.38.24-.44 5.78-10.03 6.4-10.08 3.34-4.8zm1061.48-27.1l5.78 9.1 5.27 9.14 2 3.8-2.62 1.38-1.95-3.76-5.22-9.02-5.7-9-2.4-3.43 2.43-1.67zm-1033.68-7.4l-7.98 8.88-8.46 10.22-2.63 3.47-2.35-1.8 2.67-3.5 8.53-10.32 8.03-8.9zm1004.62-29.1l8.26 9.17 7.56 9.14 2.04 2.7-2.35 1.78-2-2.64-7.48-9.04-8.18-9.08-1.56-1.6 2.12-2.05zm-972.5-1.4l-9.2 7.94-11.32 10.62-1.32 1.34-2.1-2.06 1.35-1.4 11.4-10.7 9.26-7.98zm942.73-26.46l10.84 9.35 6.77 6.35-2.02 2.15-6.73-6.32-10.75-9.27-4.8-3.8 1.83-2.3zm-907.45-.34l-2.95 1.95-15.25 11.08-5.62 4.45-1.83-2.3 5.66-4.5 15.36-11.15 3-2zm37.72-23.37l-5.1 2.8-18.7 11.32-1.56 1.04-1.63-2.47 1.6-1.07 18.8-11.38 5.17-2.84zm830.4-4.75l14.37 9.55 8.27 6-1.73 2.4-8.23-5.98-14.27-9.47-1.92-1.17 1.54-2.5zm-790.96-15.6l-.95.42-22.9 11.37-2.58 1.4-1.42-2.57 2.63-1.45 23.02-11.42 1-.45zm757.64-3.58l17.47 9.6 1.17.7-1.53 2.53-1.1-.68-17.37-9.54-7.55-3.73 1.3-2.65zm-716.74-13.8l-16.53 6.53-10.8 4.82-1.2-2.7 10.86-4.84 16.58-6.55zm676.15-5.25l19.6 8.72-1.2 2.7-19.53-8.7-7.65-3.02 1.08-2.74zm-634.33-9.85l-28.03 9.76-.97-2.8 28.03-9.74zm584.87-8.48l25.94 9.03 2.02.8-1.08 2.74-1.96-.78-25.83-9-.1-.02.86-2.82zm-542.28-4l-8.76 2.26-19.7 5.94-.84-2.82 19.74-5.96 8.83-2.26zm513.72-4.6l14.2 4.28-.85 2.82-14.14-4.26-14.4-3.7.74-2.85zm-470.5-5.78l-15.6 3.3-13.24 3.4-.74-2.85 13.3-3.42 15.66-3.33zm439.2-2.26l2.5.64-.75 2.86-2.43-.62-26.5-5.63.6-2.88zm-395.56-6.14l-20.16 3.4-8.97 1.9-.63-2.87 9.04-1.92 20.23-3.42zm354.35-2.3l-.5 2.9-29.25-4.93.5-2.9zM986.6 2620l-22.67 2.86-6.68 1.13-.5-2.9 6.75-1.15 22.72-2.87zm240.87-5.88l25.46 3.22-.37 2.92-25.4-3.2-4-.34.25-2.93zm-196.68 1.3l-23.5 1.96-6 .76-.36-2.93 6.05-.77 23.55-1.98zm154.75-4.8l23.07 1.93-.25 2.94-23-1.93-6.53-.27.13-2.95zm-110.4 2.04l-23.23.98-6.34.53-.25-2.94 6.4-.53 23.3-.98zm89-2.94l-.13 2.95-22.26-.93h-7.34v-2.95h7.4zm-44.56 2.02H1097l-7.02.3-.13-2.95 7.1-.3h22.63z" stroke="#3a414a" stroke-width=".05" fill="#3a414a"/><path d="M1660.9 2937.2l-.55-.14-.93-.07-.94.06-.53.13-.04-1.74 2.96-.06z" fill="#3a414a"/><path stroke="#3a414a" stroke-width=".05" fill="#3a414a"/><path d="M517.46 2958.8l-7.9 12.75-7.36-13.06z" fill="#3a414a"/><path d="M520.08 2957.38l-10.58 17.07-9.86-17.5zm-10.46 11.28l5.23-8.43-10.1-.22z" stroke="#3a414a" stroke-width=".05" fill="#3a414a"/><g><use xlink:href="#y" transform="matrix(1,0,0,1,1666.6244734471852,2905.77129545127) translate(0 14.222222222222223)"/></g><path d="M2103.33 2953v-47.55" stroke="#3a414a" stroke-width="3" stroke-linejoin="round" fill="none"/><path d="M2104.8 2954.5h-2.94v-1.54h2.95z" stroke="#3a414a" stroke-width=".05" fill="#3a414a"/><path d="M2103.33 2897.28l7.64 12.9h-15.27z" stroke="#3a414a" stroke-width="3" fill="#3a414a"/><path d="M2268.25 2960.5a6 6 0 0 1 6-6h148a6 6 0 0 1 6 6v108a6 6 0 0 1-6 6h-148a6 6 0 0 1-6-6z" stroke="#000" stroke-opacity="0" stroke-width="3" fill="#393fc3"/><g><use xlink:href="#B" transform="matrix(1,0,0,1,2280.250000000001,2966.500025) translate(28.586419753086425 26.77777777777778)"/><use xlink:href="#C" transform="matrix(1,0,0,1,2280.250000000001,2966.500025) translate(18.061728395061735 53.44444444444445)"/><use xlink:href="#d" transform="matrix(1,0,0,1,2280.250000000001,2966.500025) translate(100.71604938271605 53.44444444444445)"/><use xlink:href="#D" transform="matrix(1,0,0,1,2280.250000000001,2966.500025) translate(45.808641975308646 80.11111111111111)"/></g><path d="M2184.84 3014.5h72.3" stroke="#3a414a" stroke-width="3" stroke-linejoin="round" fill="none"/><path d="M2184.87 3015.97h-1.54v-2.94h1.54z" stroke="#3a414a" stroke-width=".05" fill="#3a414a"/><path d="M2265.3 3014.5l-12.9 7.64v-15.28z" stroke="#3a414a" stroke-width="3" fill="#3a414a"/><path d="M2186.34 2808.7l6.73.14 8.14.5 8.03.85 7.88 1.16 7.73 1.47 7.54 1.77 7.35 2.05 7.13 2.32 6.92 2.57 6.68 2.8 6.43 3.03 6.18 3.23 5.93 3.42 5.65 3.6 5.4 3.75 5.14 3.9 4.86 4.03 4.62 4.16 4.37 4.27 4.1 4.38 3.87 4.5 3.63 4.56 3.4 4.67 3.15 4.75 2.93 4.84 2.7 4.93 2.5 5 2.27 5.12 2.06 5.2 1.84 5.3 1.63 5.4 1.4 5.5 1.2 5.62.98 5.74.75 5.88.36 4.28" stroke="#3a414a" stroke-width="3" stroke-linejoin="round" fill="none"/><path d="M2186.4 2807.22l-.06 2.95-1.5-.03v-2.95z" stroke="#3a414a" stroke-width=".05" fill="#3a414a"/><path d="M2348.13 2951.56l-8.14-12.6 15.25-.6z" stroke="#3a414a" stroke-width="3" fill="#3a414a"/><path d="M2429.75 3014.5h28.47" stroke="#3a414a" stroke-width="3" stroke-linejoin="round" fill="none"/><path d="M2429.8 3015.97h-1.55v-2.94h1.54z" stroke="#3a414a" stroke-width=".05" fill="#3a414a"/><path d="M2466.4 3014.5l-12.92 7.64v-15.28z" stroke="#3a414a" stroke-width="3" fill="#3a414a"/><defs><path fill="#fff" d="M205 0l-28-72H64L36 0H1l101-248h38L239 0h-34zm-38-99l-47-123c-12 45-31 82-46 123h93" id="E"/><path fill="#fff" d="M114-163C36-179 61-72 57 0H25l-1-190h30c1 12-1 29 2 39 6-27 23-49 58-41v29" id="F"/><path fill="#fff" d="M177-190C167-65 218 103 67 71c-23-6-38-20-44-43l32-5c15 47 100 32 89-28v-30C133-14 115 1 83 1 29 1 15-40 15-95c0-56 16-97 71-98 29-1 48 16 59 35 1-10 0-23 2-32h30zM94-22c36 0 50-32 50-73 0-42-14-75-50-75-39 0-46 34-46 75s6 73 46 73" id="G"/><path fill="#fff" d="M100-194c62-1 85 37 85 99 1 63-27 99-86 99S16-35 15-95c0-66 28-99 85-99zM99-20c44 1 53-31 53-75 0-43-8-75-51-75s-53 32-53 75 10 74 51 75" id="H"/><path fill="#fff" d="M212-179c-10-28-35-45-73-45-59 0-87 40-87 99 0 60 29 101 89 101 43 0 62-24 78-52l27 14C228-24 195 4 139 4 59 4 22-46 18-125c-6-104 99-153 187-111 19 9 31 26 39 46" id="I"/><path fill="#fff" d="M30-248c118-7 216 8 213 122C240-48 200 0 122 0H30v-248zM63-27c89 8 146-16 146-99s-60-101-146-95v194" id="J"/><g id="a"><use transform="matrix(0.06172839506172839,0,0,0.06172839506172839,0,0)" xlink:href="#E"/><use transform="matrix(0.06172839506172839,0,0,0.06172839506172839,14.814814814814813,0)" xlink:href="#F"/><use transform="matrix(0.06172839506172839,0,0,0.06172839506172839,22.160493827160494,0)" xlink:href="#G"/><use transform="matrix(0.06172839506172839,0,0,0.06172839506172839,34.50617283950617,0)" xlink:href="#H"/><use transform="matrix(0.06172839506172839,0,0,0.06172839506172839,46.85185185185185,0)" xlink:href="#I"/><use transform="matrix(0.06172839506172839,0,0,0.06172839506172839,62.8395061728395,0)" xlink:href="#J"/></g><path fill="#fff" d="M59-47c-2 24 18 29 38 22v24C64 9 27 4 27-40v-127H5v-23h24l9-43h21v43h35v23H59v120" id="K"/><path fill="#fff" d="M100-194c63 0 86 42 84 106H49c0 40 14 67 53 68 26 1 43-12 49-29l28 8c-11 28-37 45-77 45C44 4 14-33 15-96c1-61 26-98 85-98zm52 81c6-60-76-77-97-28-3 7-6 17-6 28h103" id="L"/><path fill="#fff" d="M135-143c-3-34-86-38-87 0 15 53 115 12 119 90S17 21 10-45l28-5c4 36 97 45 98 0-10-56-113-15-118-90-4-57 82-63 122-42 12 7 21 19 24 35" id="M"/><g id="b"><use transform="matrix(0.06172839506172839,0,0,0.06172839506172839,0,0)" xlink:href="#K"/><use transform="matrix(0.06172839506172839,0,0,0.06172839506172839,6.172839506172839,0)" xlink:href="#L"/><use transform="matrix(0.06172839506172839,0,0,0.06172839506172839,18.51851851851852,0)" xlink:href="#M"/><use transform="matrix(0.06172839506172839,0,0,0.06172839506172839,29.62962962962963,0)" xlink:href="#K"/></g><path fill="#fff" d="M85-194c31 0 48 13 60 33l-1-100h32l1 261h-30c-2-10 0-23-3-31C134-8 116 4 85 4 32 4 16-35 15-94c0-66 23-100 70-100zm9 24c-40 0-46 34-46 75 0 40 6 74 45 74 42 0 51-32 51-76 0-42-9-74-50-73" id="N"/><path fill="#fff" d="M115-194c55 1 70 41 70 98S169 2 115 4C84 4 66-9 55-30l1 105H24l-1-265h31l2 30c10-21 28-34 59-34zm-8 174c40 0 45-34 45-75s-6-73-45-74c-42 0-51 32-51 76 0 43 10 73 51 73" id="O"/><path fill="#fff" d="M24 0v-261h32V0H24" id="P"/><path fill="#fff" d="M179-190L93 31C79 59 56 82 12 73V49c39 6 53-20 64-50L1-190h34L92-34l54-156h33" id="Q"/><g id="c"><use transform="matrix(0.06172839506172839,0,0,0.06172839506172839,0,0)" xlink:href="#N"/><use transform="matrix(0.06172839506172839,0,0,0.06172839506172839,12.345679012345679,0)" xlink:href="#L"/><use transform="matrix(0.06172839506172839,0,0,0.06172839506172839,24.691358024691358,0)" xlink:href="#O"/><use transform="matrix(0.06172839506172839,0,0,0.06172839506172839,37.03703703703704,0)" xlink:href="#P"/><use transform="matrix(0.06172839506172839,0,0,0.06172839506172839,41.91358024691358,0)" xlink:href="#H"/><use transform="matrix(0.06172839506172839,0,0,0.06172839506172839,54.25925925925926,0)" xlink:href="#O"/><use transform="matrix(0.06172839506172839,0,0,0.06172839506172839,66.60493827160494,0)" xlink:href="#Q"/></g><path fill="#fff" d="M24-231v-30h32v30H24zM24 0v-190h32V0H24" id="R"/><path fill="#fff" d="M117-194c89-4 53 116 60 194h-32v-121c0-31-8-49-39-48C34-167 62-67 57 0H25l-1-190h30c1 10-1 24 2 32 11-22 29-35 61-36" id="S"/><g id="d"><use transform="matrix(0.06172839506172839,0,0,0.06172839506172839,0,0)" xlink:href="#R"/><use transform="matrix(0.06172839506172839,0,0,0.06172839506172839,4.876543209876543,0)" xlink:href="#S"/></g><path fill="#fff" d="M108 0H70L1-190h34L89-25l56-165h34" id="T"/><g id="e"><use transform="matrix(0.06172839506172839,0,0,0.06172839506172839,0,0)" xlink:href="#N"/><use transform="matrix(0.06172839506172839,0,0,0.06172839506172839,12.345679012345679,0)" xlink:href="#L"/><use transform="matrix(0.06172839506172839,0,0,0.06172839506172839,24.691358024691358,0)" xlink:href="#T"/><use transform="matrix(0.06172839506172839,0,0,0.06172839506172839,35.80246913580247,0)" xlink:href="#L"/><use transform="matrix(0.06172839506172839,0,0,0.06172839506172839,48.148148148148145,0)" xlink:href="#P"/><use transform="matrix(0.06172839506172839,0,0,0.06172839506172839,53.02469135802469,0)" xlink:href="#H"/><use transform="matrix(0.06172839506172839,0,0,0.06172839506172839,65.37037037037037,0)" xlink:href="#O"/></g><path fill="#333" d="M146-102V0H94v-102L6-248h54l60 105 60-105h54" id="U"/><path fill="#333" d="M185-48c-13 30-37 53-82 52C43 2 14-33 14-96s30-98 90-98c62 0 83 45 84 108H66c0 31 8 55 39 56 18 0 30-7 34-22zm-45-69c5-46-57-63-70-21-2 6-4 13-4 21h74" id="V"/><path fill="#333" d="M137-138c1-29-70-34-71-4 15 46 118 7 119 86 1 83-164 76-172 9l43-7c4 19 20 25 44 25 33 8 57-30 24-41C81-84 22-81 20-136c-2-80 154-74 161-7" id="W"/><g id="f"><use transform="matrix(0.04938271604938272,0,0,0.04938271604938272,0,0)" xlink:href="#U"/><use transform="matrix(0.04938271604938272,0,0,0.04938271604938272,10.864197530864198,0)" xlink:href="#V"/><use transform="matrix(0.04938271604938272,0,0,0.04938271604938272,20.74074074074074,0)" xlink:href="#W"/></g><path fill="#333" d="M30-248c87 1 191-15 191 75 0 78-77 80-158 76V0H30v-248zm33 125c57 0 124 11 124-50 0-59-68-47-124-48v98" id="X"/><path fill="#333" d="M141-36C126-15 110 5 73 4 37 3 15-17 15-53c-1-64 63-63 125-63 3-35-9-54-41-54-24 1-41 7-42 31l-33-3c5-37 33-52 76-52 45 0 72 20 72 64v82c-1 20 7 32 28 27v20c-31 9-61-2-59-35zM48-53c0 20 12 33 32 33 41-3 63-29 60-74-43 2-92-5-92 41" id="Y"/><path fill="#333" d="M135-143c-3-34-86-38-87 0 15 53 115 12 119 90S17 21 10-45l28-5c4 36 97 45 98 0-10-56-113-15-118-90-4-57 82-63 122-42 12 7 21 19 24 35" id="Z"/><g id="g"><use transform="matrix(0.06172839506172839,0,0,0.06172839506172839,0,0)" xlink:href="#X"/><use transform="matrix(0.06172839506172839,0,0,0.06172839506172839,14.814814814814813,0)" xlink:href="#Y"/><use transform="matrix(0.06172839506172839,0,0,0.06172839506172839,27.160493827160494,0)" xlink:href="#Z"/><use transform="matrix(0.06172839506172839,0,0,0.06172839506172839,38.27160493827161,0)" xlink:href="#Z"/></g><path fill="#333" d="M84 4C-5 8 30-112 23-190h32v120c0 31 7 50 39 49 72-2 45-101 50-169h31l1 190h-30c-1-10 1-25-2-33-11 22-28 36-60 37" id="aa"/><path fill="#333" d="M106-169C34-169 62-67 57 0H25v-261h32l-1 103c12-21 28-36 61-36 89 0 53 116 60 194h-32v-121c2-32-8-49-39-48" id="ab"/><g id="h"><use transform="matrix(0.06172839506172839,0,0,0.06172839506172839,0,0)" xlink:href="#X"/><use transform="matrix(0.06172839506172839,0,0,0.06172839506172839,14.814814814814813,0)" xlink:href="#aa"/><use transform="matrix(0.06172839506172839,0,0,0.06172839506172839,27.160493827160494,0)" xlink:href="#Z"/><use transform="matrix(0.06172839506172839,0,0,0.06172839506172839,38.27160493827161,0)" xlink:href="#ab"/></g><path fill="#333" d="M59-47c-2 24 18 29 38 22v24C64 9 27 4 27-40v-127H5v-23h24l9-43h21v43h35v23H59v120" id="ac"/><path fill="#333" d="M100-194c62-1 85 37 85 99 1 63-27 99-86 99S16-35 15-95c0-66 28-99 85-99zM99-20c44 1 53-31 53-75 0-43-8-75-51-75s-53 32-53 75 10 74 51 75" id="ad"/><g id="i"><use transform="matrix(0.06172839506172839,0,0,0.06172839506172839,0,0)" xlink:href="#ac"/><use transform="matrix(0.06172839506172839,0,0,0.06172839506172839,6.172839506172839,0)" xlink:href="#ad"/></g><path fill="#333" d="M160-131c35 5 61 23 61 61C221 17 115-2 30 0v-248c76 3 177-17 177 60 0 33-19 50-47 57zm-97-11c50-1 110 9 110-42 0-47-63-36-110-37v79zm0 115c55-2 124 14 124-45 0-56-70-42-124-44v89" id="ae"/><path fill="#333" d="M114-163C36-179 61-72 57 0H25l-1-190h30c1 12-1 29 2 39 6-27 23-49 58-41v29" id="af"/><path fill="#333" d="M117-194c89-4 53 116 60 194h-32v-121c0-31-8-49-39-48C34-167 62-67 57 0H25l-1-190h30c1 10-1 24 2 32 11-22 29-35 61-36" id="ag"/><path fill="#333" d="M96-169c-40 0-48 33-48 73s9 75 48 75c24 0 41-14 43-38l32 2c-6 37-31 61-74 61-59 0-76-41-82-99-10-93 101-131 147-64 4 7 5 14 7 22l-32 3c-4-21-16-35-41-35" id="ah"/><g id="j"><use transform="matrix(0.06172839506172839,0,0,0.06172839506172839,0,0)" xlink:href="#ae"/><use transform="matrix(0.06172839506172839,0,0,0.06172839506172839,14.814814814814813,0)" xlink:href="#af"/><use transform="matrix(0.06172839506172839,0,0,0.06172839506172839,22.160493827160494,0)" xlink:href="#Y"/><use transform="matrix(0.06172839506172839,0,0,0.06172839506172839,34.50617283950617,0)" xlink:href="#ag"/><use transform="matrix(0.06172839506172839,0,0,0.06172839506172839,46.85185185185185,0)" xlink:href="#ah"/><use transform="matrix(0.06172839506172839,0,0,0.06172839506172839,57.96296296296296,0)" xlink:href="#ab"/></g><path fill="#fff" d="M143 4C61 4 22-44 18-125c-5-107 100-154 193-111 17 8 29 25 37 43l-32 9c-13-25-37-40-76-40-61 0-88 39-88 99 0 61 29 100 91 101 35 0 62-11 79-27v-45h-74v-28h105v86C228-13 192 4 143 4" id="ai"/><path fill="#fff" d="M197 0v-115H63V0H30v-248h33v105h134v-105h34V0h-34" id="aj"/><path fill="#fff" d="M84 4C-5 8 30-112 23-190h32v120c0 31 7 50 39 49 72-2 45-101 50-169h31l1 190h-30c-1-10 1-25-2-33-11 22-28 36-60 37" id="ak"/><path fill="#fff" d="M115-194c53 0 69 39 70 98 0 66-23 100-70 100C84 3 66-7 56-30L54 0H23l1-261h32v101c10-23 28-34 59-34zm-8 174c40 0 45-34 45-75 0-40-5-75-45-74-42 0-51 32-51 76 0 43 10 73 51 73" id="al"/><g id="k"><use transform="matrix(0.06172839506172839,0,0,0.06172839506172839,0,0)" xlink:href="#ai"/><use transform="matrix(0.06172839506172839,0,0,0.06172839506172839,17.28395061728395,0)" xlink:href="#R"/><use transform="matrix(0.06172839506172839,0,0,0.06172839506172839,22.160493827160494,0)" xlink:href="#K"/><use transform="matrix(0.06172839506172839,0,0,0.06172839506172839,28.333333333333332,0)" xlink:href="#aj"/><use transform="matrix(0.06172839506172839,0,0,0.06172839506172839,44.32098765432099,0)" xlink:href="#ak"/><use transform="matrix(0.06172839506172839,0,0,0.06172839506172839,56.666666666666664,0)" xlink:href="#al"/></g><path fill="#fff" d="M96-169c-40 0-48 33-48 73s9 75 48 75c24 0 41-14 43-38l32 2c-6 37-31 61-74 61-59 0-76-41-82-99-10-93 101-131 147-64 4 7 5 14 7 22l-32 3c-4-21-16-35-41-35" id="am"/><g id="l"><use transform="matrix(0.06172839506172839,0,0,0.06172839506172839,0,0)" xlink:href="#E"/><use transform="matrix(0.06172839506172839,0,0,0.06172839506172839,14.814814814814813,0)" xlink:href="#am"/><use transform="matrix(0.06172839506172839,0,0,0.06172839506172839,25.925925925925924,0)" xlink:href="#K"/><use transform="matrix(0.06172839506172839,0,0,0.06172839506172839,32.098765432098766,0)" xlink:href="#R"/><use transform="matrix(0.06172839506172839,0,0,0.06172839506172839,36.97530864197531,0)" xlink:href="#H"/><use transform="matrix(0.06172839506172839,0,0,0.06172839506172839,49.32098765432099,0)" xlink:href="#S"/><use transform="matrix(0.06172839506172839,0,0,0.06172839506172839,61.666666666666664,0)" xlink:href="#M"/></g><path fill="#fff" d="M30-248c87 1 191-15 191 75 0 78-77 80-158 76V0H30v-248zm33 125c57 0 124 11 124-50 0-59-68-47-124-48v98" id="an"/><g id="m"><use transform="matrix(0.06172839506172839,0,0,0.06172839506172839,0,0)" xlink:href="#an"/><use transform="matrix(0.06172839506172839,0,0,0.06172839506172839,14.814814814814813,0)" xlink:href="#ak"/><use transform="matrix(0.06172839506172839,0,0,0.06172839506172839,27.160493827160494,0)" xlink:href="#P"/><use transform="matrix(0.06172839506172839,0,0,0.06172839506172839,32.03703703703704,0)" xlink:href="#P"/></g><path fill="#fff" d="M233-177c-1 41-23 64-60 70L243 0h-38l-65-103H63V0H30v-248c88 3 205-21 203 71zM63-129c60-2 137 13 137-47 0-61-80-42-137-45v92" id="ao"/><path fill="#fff" d="M145-31C134-9 116 4 85 4 32 4 16-35 15-94c0-59 17-99 70-100 32-1 48 14 60 33 0-11-1-24 2-32h30l-1 268h-32zM93-21c41 0 51-33 51-76s-8-73-50-73c-40 0-46 35-46 75s5 74 45 74" id="ap"/><g id="n"><use transform="matrix(0.06172839506172839,0,0,0.06172839506172839,0,0)" xlink:href="#ao"/><use transform="matrix(0.06172839506172839,0,0,0.06172839506172839,15.987654320987653,0)" xlink:href="#L"/><use transform="matrix(0.06172839506172839,0,0,0.06172839506172839,28.333333333333332,0)" xlink:href="#ap"/><use transform="matrix(0.06172839506172839,0,0,0.06172839506172839,40.67901234567901,0)" xlink:href="#ak"/><use transform="matrix(0.06172839506172839,0,0,0.06172839506172839,53.02469135802469,0)" xlink:href="#L"/><use transform="matrix(0.06172839506172839,0,0,0.06172839506172839,65.37037037037037,0)" xlink:href="#M"/><use transform="matrix(0.06172839506172839,0,0,0.06172839506172839,76.48148148148148,0)" xlink:href="#K"/></g><path fill="#333" d="M240 0l2-218c-23 76-54 145-80 218h-23L58-218 59 0H30v-248h44l77 211c21-75 51-140 76-211h43V0h-30" id="aq"/><path fill="#333" d="M100-194c63 0 86 42 84 106H49c0 40 14 67 53 68 26 1 43-12 49-29l28 8c-11 28-37 45-77 45C44 4 14-33 15-96c1-61 26-98 85-98zm52 81c6-60-76-77-97-28-3 7-6 17-6 28h103" id="ar"/><g id="o"><use transform="matrix(0.06172839506172839,0,0,0.06172839506172839,0,0)" xlink:href="#aq"/><use transform="matrix(0.06172839506172839,0,0,0.06172839506172839,18.456790123456788,0)" xlink:href="#Y"/><use transform="matrix(0.06172839506172839,0,0,0.06172839506172839,30.80246913580247,0)" xlink:href="#Z"/><use transform="matrix(0.06172839506172839,0,0,0.06172839506172839,41.91358024691358,0)" xlink:href="#ac"/><use transform="matrix(0.06172839506172839,0,0,0.06172839506172839,48.086419753086425,0)" xlink:href="#ar"/><use transform="matrix(0.06172839506172839,0,0,0.06172839506172839,60.4320987654321,0)" xlink:href="#af"/></g><path d="M85-194c31 0 48 13 60 33l-1-100h32l1 261h-30c-2-10 0-23-3-31C134-8 116 4 85 4 32 4 16-35 15-94c0-66 23-100 70-100zm9 24c-40 0-46 34-46 75 0 40 6 74 45 74 42 0 51-32 51-76 0-42-9-74-50-73" id="as"/><path d="M100-194c63 0 86 42 84 106H49c0 40 14 67 53 68 26 1 43-12 49-29l28 8c-11 28-37 45-77 45C44 4 14-33 15-96c1-61 26-98 85-98zm52 81c6-60-76-77-97-28-3 7-6 17-6 28h103" id="at"/><path d="M108 0H70L1-190h34L89-25l56-165h34" id="au"/><path d="M24 0v-261h32V0H24" id="av"/><path d="M100-194c62-1 85 37 85 99 1 63-27 99-86 99S16-35 15-95c0-66 28-99 85-99zM99-20c44 1 53-31 53-75 0-43-8-75-51-75s-53 32-53 75 10 74 51 75" id="aw"/><path d="M115-194c55 1 70 41 70 98S169 2 115 4C84 4 66-9 55-30l1 105H24l-1-265h31l2 30c10-21 28-34 59-34zm-8 174c40 0 45-34 45-75s-6-73-45-74c-42 0-51 32-51 76 0 43 10 73 51 73" id="ax"/><g id="p"><use transform="matrix(0.07222222222222222,0,0,0.07222222222222222,0,0)" xlink:href="#as"/><use transform="matrix(0.07222222222222222,0,0,0.07222222222222222,14.444444444444443,0)" xlink:href="#at"/><use transform="matrix(0.07222222222222222,0,0,0.07222222222222222,28.888888888888886,0)" xlink:href="#au"/><use transform="matrix(0.07222222222222222,0,0,0.07222222222222222,41.888888888888886,0)" xlink:href="#at"/><use transform="matrix(0.07222222222222222,0,0,0.07222222222222222,56.33333333333333,0)" xlink:href="#av"/><use transform="matrix(0.07222222222222222,0,0,0.07222222222222222,62.038888888888884,0)" xlink:href="#aw"/><use transform="matrix(0.07222222222222222,0,0,0.07222222222222222,76.48333333333332,0)" xlink:href="#ax"/></g><path d="M96-169c-40 0-48 33-48 73s9 75 48 75c24 0 41-14 43-38l32 2c-6 37-31 61-74 61-59 0-76-41-82-99-10-93 101-131 147-64 4 7 5 14 7 22l-32 3c-4-21-16-35-41-35" id="ay"/><path d="M143 0L79-87 56-68V0H24v-261h32v163l83-92h37l-77 82L181 0h-38" id="az"/><path d="M114-163C36-179 61-72 57 0H25l-1-190h30c1 12-1 29 2 39 6-27 23-49 58-41v29" id="aA"/><g id="q"><use transform="matrix(0.07222222222222222,0,0,0.07222222222222222,0,0)" xlink:href="#as"/><use transform="matrix(0.07222222222222222,0,0,0.07222222222222222,14.444444444444443,0)" xlink:href="#aw"/><use transform="matrix(0.07222222222222222,0,0,0.07222222222222222,28.888888888888886,0)" xlink:href="#ay"/><use transform="matrix(0.07222222222222222,0,0,0.07222222222222222,41.888888888888886,0)" xlink:href="#az"/><use transform="matrix(0.07222222222222222,0,0,0.07222222222222222,54.888888888888886,0)" xlink:href="#at"/><use transform="matrix(0.07222222222222222,0,0,0.07222222222222222,69.33333333333333,0)" xlink:href="#aA"/></g><path d="M234-2c-28 10-62 0-77-18C117 19 8 12 13-65c3-43 29-61 60-76-25-40-17-114 47-108 35 3 59 15 59 50 0 44-40 53-71 69 14 26 32 50 51 72 14-21 24-43 30-72l26 8c-9 33-21 57-38 82 13 13 33 22 57 15v23zM97-151c25-10 52-18 56-48-1-18-13-29-33-29-42 0-39 50-23 77zM42-66c-3 51 71 58 98 28-20-24-41-51-56-80-23 10-40 24-42 52" id="aB"/><use transform="matrix(0.07222222222222222,0,0,0.07222222222222222,0,0)" xlink:href="#aB" id="r"/><path d="M106-169C34-169 62-67 57 0H25v-261h32l-1 103c12-21 28-36 61-36 89 0 53 116 60 194h-32v-121c2-32-8-49-39-48" id="aC"/><path d="M210-169c-67 3-38 105-44 169h-31v-121c0-29-5-50-35-48C34-165 62-65 56 0H25l-1-190h30c1 10-1 24 2 32 10-44 99-50 107 0 11-21 27-35 58-36 85-2 47 119 55 194h-31v-121c0-29-5-49-35-48" id="aD"/><g id="s"><use transform="matrix(0.07222222222222222,0,0,0.07222222222222222,0,0)" xlink:href="#aC"/><use transform="matrix(0.07222222222222222,0,0,0.07222222222222222,14.444444444444443,0)" xlink:href="#at"/><use transform="matrix(0.07222222222222222,0,0,0.07222222222222222,28.888888888888886,0)" xlink:href="#av"/><use transform="matrix(0.07222222222222222,0,0,0.07222222222222222,34.59444444444444,0)" xlink:href="#aD"/></g><path d="M141-36C126-15 110 5 73 4 37 3 15-17 15-53c-1-64 63-63 125-63 3-35-9-54-41-54-24 1-41 7-42 31l-33-3c5-37 33-52 76-52 45 0 72 20 72 64v82c-1 20 7 32 28 27v20c-31 9-61-2-59-35zM48-53c0 20 12 33 32 33 41-3 63-29 60-74-43 2-92-5-92 41" id="aE"/><path d="M59-47c-2 24 18 29 38 22v24C64 9 27 4 27-40v-127H5v-23h24l9-43h21v43h35v23H59v120" id="aF"/><g id="t"><use transform="matrix(0.07222222222222222,0,0,0.07222222222222222,0,0)" xlink:href="#ay"/><use transform="matrix(0.07222222222222222,0,0,0.07222222222222222,12.999999999999998,0)" xlink:href="#aC"/><use transform="matrix(0.07222222222222222,0,0,0.07222222222222222,27.444444444444443,0)" xlink:href="#aE"/><use transform="matrix(0.07222222222222222,0,0,0.07222222222222222,41.888888888888886,0)" xlink:href="#aA"/><use transform="matrix(0.07222222222222222,0,0,0.07222222222222222,50.48333333333333,0)" xlink:href="#aF"/></g><g id="u"><use transform="matrix(0.04938271604938272,0,0,0.04938271604938272,0,0)" xlink:href="#U"/><use transform="matrix(0.04938271604938272,0,0,0.04938271604938272,10.864197530864198,0)" xlink:href="#V"/><use transform="matrix(0.04938271604938272,0,0,0.04938271604938272,20.74074074074074,0)" xlink:href="#W"/></g><path fill="#333" d="M234-2c-28 10-62 0-77-18C117 19 8 12 13-65c3-43 29-61 60-76-25-40-17-114 47-108 35 3 59 15 59 50 0 44-40 53-71 69 14 26 32 50 51 72 14-21 24-43 30-72l26 8c-9 33-21 57-38 82 13 13 33 22 57 15v23zM97-151c25-10 52-18 56-48-1-18-13-29-33-29-42 0-39 50-23 77zM42-66c-3 51 71 58 98 28-20-24-41-51-56-80-23 10-40 24-42 52" id="aG"/><use transform="matrix(0.06172839506172839,0,0,0.06172839506172839,0,0)" xlink:href="#aG" id="v"/><path fill="#333" d="M30 0v-248h187v28H63v79h144v27H63v87h162V0H30" id="aH"/><path fill="#333" d="M85-194c31 0 48 13 60 33l-1-100h32l1 261h-30c-2-10 0-23-3-31C134-8 116 4 85 4 32 4 16-35 15-94c0-66 23-100 70-100zm9 24c-40 0-46 34-46 75 0 40 6 74 45 74 42 0 51-32 51-76 0-42-9-74-50-73" id="aI"/><g id="w"><use transform="matrix(0.06172839506172839,0,0,0.06172839506172839,0,0)" xlink:href="#aH"/><use transform="matrix(0.06172839506172839,0,0,0.06172839506172839,14.814814814814813,0)" xlink:href="#ag"/><use transform="matrix(0.06172839506172839,0,0,0.06172839506172839,27.160493827160494,0)" xlink:href="#aI"/></g><path d="M233-177c-1 41-23 64-60 70L243 0h-38l-65-103H63V0H30v-248c88 3 205-21 203 71zM63-129c60-2 137 13 137-47 0-61-80-42-137-45v92" id="aJ"/><path d="M135-143c-3-34-86-38-87 0 15 53 115 12 119 90S17 21 10-45l28-5c4 36 97 45 98 0-10-56-113-15-118-90-4-57 82-63 122-42 12 7 21 19 24 35" id="aK"/><g id="x"><use transform="matrix(0.07222222222222222,0,0,0.07222222222222222,0,0)" xlink:href="#aJ"/><use transform="matrix(0.07222222222222222,0,0,0.07222222222222222,18.705555555555552,0)" xlink:href="#at"/><use transform="matrix(0.07222222222222222,0,0,0.07222222222222222,33.14999999999999,0)" xlink:href="#av"/><use transform="matrix(0.07222222222222222,0,0,0.07222222222222222,38.85555555555555,0)" xlink:href="#at"/><use transform="matrix(0.07222222222222222,0,0,0.07222222222222222,53.29999999999999,0)" xlink:href="#aE"/><use transform="matrix(0.07222222222222222,0,0,0.07222222222222222,67.74444444444444,0)" xlink:href="#aK"/><use transform="matrix(0.07222222222222222,0,0,0.07222222222222222,80.74444444444444,0)" xlink:href="#at"/><use transform="matrix(0.07222222222222222,0,0,0.07222222222222222,95.18888888888888,0)" xlink:href="#as"/></g><path fill="#333" d="M175 0L67-191c6 58 2 128 3 191H24v-248h59L193-55c-6-58-2-129-3-193h46V0h-61" id="aL"/><path fill="#333" d="M110-194c64 0 96 36 96 99 0 64-35 99-97 99-61 0-95-36-95-99 0-62 34-99 96-99zm-1 164c35 0 45-28 45-65 0-40-10-65-43-65-34 0-45 26-45 65 0 36 10 65 43 65" id="aM"/><g id="y"><use transform="matrix(0.04938271604938272,0,0,0.04938271604938272,0,0)" xlink:href="#aL"/><use transform="matrix(0.04938271604938272,0,0,0.04938271604938272,12.790123456790125,0)" xlink:href="#aM"/></g><path fill="#333" d="M205 0l-28-72H64L36 0H1l101-248h38L239 0h-34zm-38-99l-47-123c-12 45-31 82-46 123h93" id="aN"/><path fill="#333" d="M115-194c55 1 70 41 70 98S169 2 115 4C84 4 66-9 55-30l1 105H24l-1-265h31l2 30c10-21 28-34 59-34zm-8 174c40 0 45-34 45-75s-6-73-45-74c-42 0-51 32-51 76 0 43 10 73 51 73" id="aO"/><path fill="#333" d="M108 0H70L1-190h34L89-25l56-165h34" id="aP"/><g id="z"><use transform="matrix(0.06172839506172839,0,0,0.06172839506172839,0,0)" xlink:href="#aN"/><use transform="matrix(0.06172839506172839,0,0,0.06172839506172839,14.814814814814813,0)" xlink:href="#aO"/><use transform="matrix(0.06172839506172839,0,0,0.06172839506172839,27.160493827160494,0)" xlink:href="#aO"/><use transform="matrix(0.06172839506172839,0,0,0.06172839506172839,39.50617283950617,0)" xlink:href="#af"/><use transform="matrix(0.06172839506172839,0,0,0.06172839506172839,46.85185185185185,0)" xlink:href="#ad"/><use transform="matrix(0.06172839506172839,0,0,0.06172839506172839,59.197530864197525,0)" xlink:href="#aP"/><use transform="matrix(0.06172839506172839,0,0,0.06172839506172839,70.30864197530863,0)" xlink:href="#ar"/><use transform="matrix(0.06172839506172839,0,0,0.06172839506172839,82.65432098765432,0)" xlink:href="#aI"/></g><path fill="#333" d="M197 0v-115H63V0H30v-248h33v105h134v-105h34V0h-34" id="aQ"/><path fill="#333" d="M24 0v-261h32V0H24" id="aR"/><path fill="#333" d="M179-190L93 31C79 59 56 82 12 73V49c39 6 53-20 64-50L1-190h34L92-34l54-156h33" id="aS"/><g id="A"><use transform="matrix(0.06172839506172839,0,0,0.06172839506172839,0,0)" xlink:href="#aQ"/><use transform="matrix(0.06172839506172839,0,0,0.06172839506172839,15.987654320987653,0)" xlink:href="#ar"/><use transform="matrix(0.06172839506172839,0,0,0.06172839506172839,28.333333333333332,0)" xlink:href="#Y"/><use transform="matrix(0.06172839506172839,0,0,0.06172839506172839,40.67901234567901,0)" xlink:href="#aR"/><use transform="matrix(0.06172839506172839,0,0,0.06172839506172839,45.55555555555556,0)" xlink:href="#ac"/><use transform="matrix(0.06172839506172839,0,0,0.06172839506172839,51.7283950617284,0)" xlink:href="#ab"/><use transform="matrix(0.06172839506172839,0,0,0.06172839506172839,64.07407407407408,0)" xlink:href="#aS"/></g><g id="B"><use transform="matrix(0.06172839506172839,0,0,0.06172839506172839,0,0)" xlink:href="#E"/><use transform="matrix(0.06172839506172839,0,0,0.06172839506172839,14.814814814814813,0)" xlink:href="#F"/><use transform="matrix(0.06172839506172839,0,0,0.06172839506172839,22.160493827160494,0)" xlink:href="#G"/><use transform="matrix(0.06172839506172839,0,0,0.06172839506172839,34.50617283950617,0)" xlink:href="#H"/><use transform="matrix(0.06172839506172839,0,0,0.06172839506172839,46.85185185185185,0)" xlink:href="#I"/><use transform="matrix(0.06172839506172839,0,0,0.06172839506172839,62.8395061728395,0)" xlink:href="#J"/></g><g id="C"><use transform="matrix(0.06172839506172839,0,0,0.06172839506172839,0,0)" xlink:href="#N"/><use transform="matrix(0.06172839506172839,0,0,0.06172839506172839,12.345679012345679,0)" xlink:href="#L"/><use transform="matrix(0.06172839506172839,0,0,0.06172839506172839,24.691358024691358,0)" xlink:href="#O"/><use transform="matrix(0.06172839506172839,0,0,0.06172839506172839,37.03703703703704,0)" xlink:href="#P"/><use transform="matrix(0.06172839506172839,0,0,0.06172839506172839,41.91358024691358,0)" xlink:href="#H"/><use transform="matrix(0.06172839506172839,0,0,0.06172839506172839,54.25925925925926,0)" xlink:href="#Q"/><use transform="matrix(0.06172839506172839,0,0,0.06172839506172839,65.37037037037037,0)" xlink:href="#M"/></g><g id="D"><use transform="matrix(0.06172839506172839,0,0,0.06172839506172839,0,0)" xlink:href="#O"/><use transform="matrix(0.06172839506172839,0,0,0.06172839506172839,12.345679012345679,0)" xlink:href="#F"/><use transform="matrix(0.06172839506172839,0,0,0.06172839506172839,19.691358024691358,0)" xlink:href="#H"/><use transform="matrix(0.06172839506172839,0,0,0.06172839506172839,32.03703703703704,0)" xlink:href="#N"/></g></defs></g></svg>